<svg 
 xmlns="http://www.w3.org/2000/svg"
 xmlns:xlink="http://www.w3.org/1999/xlink"
 width="328px" height="28px">
<path fill-rule="evenodd"  fill="rgb(0, 0, 0)"
 d="M320.986,20.492 L327.585,27.038 L317.686,27.038 L311.087,20.492 L304.487,20.492 L304.487,27.038 L297.888,27.038 L297.888,0.856 L320.986,0.856 L327.585,7.401 L327.585,17.220 L324.286,20.492 L320.986,20.492 ZM320.986,7.401 L304.487,7.401 L304.487,13.947 L320.986,13.947 L320.986,7.401 ZM264.891,23.765 L264.891,0.856 L294.588,0.856 L294.588,7.401 L271.490,7.401 L271.490,10.674 L291.288,10.674 L291.288,17.220 L271.490,17.220 L271.490,20.492 L294.588,20.492 L294.588,27.038 L268.190,27.038 L264.891,23.765 ZM231.894,27.038 L231.894,20.492 L235.193,20.492 L235.193,7.401 L231.894,7.401 L231.894,0.856 L258.291,0.856 L261.591,4.129 L261.591,23.765 L258.291,27.038 L231.894,27.038 ZM254.992,7.401 L241.793,7.401 L241.793,20.492 L254.992,20.492 L254.992,7.401 ZM221.994,7.401 L205.496,7.401 L205.496,27.038 L198.896,27.038 L198.896,0.856 L221.994,0.856 L228.594,7.401 L228.594,27.038 L221.994,27.038 L221.994,7.401 ZM188.997,0.856 L195.597,0.856 L195.597,27.038 L188.997,27.038 L188.997,0.856 ZM155.1000,27.038 L155.1000,13.947 L162.599,7.401 L162.599,10.674 L179.098,10.674 L179.098,7.401 L162.599,7.401 L155.1000,7.401 L155.1000,0.856 L182.398,0.856 L185.697,4.129 L185.697,10.674 L182.398,13.947 L185.697,17.220 L185.697,23.765 L182.398,27.038 L155.1000,27.038 ZM179.098,17.220 L162.599,17.220 L162.599,20.492 L179.098,20.492 L179.098,17.220 ZM152.1000,14.1000 L152.1000,26.1000 L139.1000,26.1000 L152.1000,14.1000 ZM108.891,27.038 L108.891,20.492 L131.989,20.492 L131.989,17.220 L108.891,17.220 L108.891,0.856 L115.490,0.856 L115.490,10.674 L131.989,10.674 L131.989,0.856 L138.588,0.856 L138.588,23.765 L135.288,27.038 L108.891,27.038 ZM75.893,23.765 L75.893,0.856 L105.591,0.856 L105.591,7.401 L82.493,7.401 L82.493,10.674 L102.291,10.674 L102.291,17.220 L82.493,17.220 L82.493,20.492 L105.591,20.492 L105.591,27.038 L79.193,27.038 L75.893,23.765 ZM64.1000,26.1000 L57.1000,14.1000 L49.496,23.765 L49.496,27.038 L42.896,27.038 L42.896,0.856 L49.496,0.856 L49.496,13.947 L62.695,0.856 L72.594,0.856 L62.695,10.674 L72.594,27.038 L64.1000,26.1000 ZM32.997,7.401 L16.499,7.401 L16.499,27.038 L9.899,27.038 L9.899,0.856 L32.997,0.856 L39.597,7.401 L39.597,27.038 L32.997,27.038 L32.997,7.401 ZM-0.000,0.856 L6.599,0.856 L6.599,27.038 L-0.000,27.038 L-0.000,0.856 Z"/>
</svg>